<svg xmlns="http://www.w3.org/2000/svg" version="1.1" xmlns:xlink="http://www.w3.org/1999/xlink" xmlns:svgjs="http://svgjs.dev/svgjs" width="132.06784mm" height="152.49881mm"><svg width="132.06784mm" height="152.49881mm" viewBox="0 0 132.06784 152.49881" version="1.1" id="SvgjsSvg1258" inkscape:version="1.3.2 (091e20e, 2023-11-25, custom)" sodipodi:docname="logo.svg" inkscape:export-filename="logo.png" inkscape:export-xdpi="46.16" inkscape:export-ydpi="46.16" xml:space="preserve" xmlns:inkscape="http://www.inkscape.org/namespaces/inkscape" xmlns:sodipodi="http://sodipodi.sourceforge.net/DTD/sodipodi-0.dtd" xmlns:xlink="http://www.w3.org/1999/xlink" xmlns="http://www.w3.org/2000/svg" xmlns:svg="http://www.w3.org/2000/svg" xmlns:rdf="http://www.w3.org/1999/02/22-rdf-syntax-ns#" xmlns:cc="http://creativecommons.org/ns#" xmlns:dc="http://purl.org/dc/elements/1.1/"><defs id="SvgjsDefs1257"><rect x="392.81646" y="215.21501" width="86.347665" height="116.76559" id="SvgjsRect1256"></rect><linearGradient inkscape:collect="always" id="SvgjsLinearGradient1255"><stop style="stop-color:#64748d;stop-opacity:1;" offset="0" id="SvgjsStop1254"></stop><stop style="stop-color:#f7f6f6;stop-opacity:1;" offset="1" id="SvgjsStop1253"></stop></linearGradient><clipPath clipPathUnits="userSpaceOnUse" id="SvgjsClipPath1252"><path sodipodi:type="star" style="opacity:1;fill:none;fill-opacity:0.97979796;stroke:#ffffff;stroke-width:3.11897802;stroke-miterlimit:4;stroke-dasharray:none;stroke-dashoffset:0;stroke-opacity:1" id="SvgjsPath1251" sodipodi:sides="6" sodipodi:cx="82.041534" sodipodi:cy="193.5974" sodipodi:r1="73.940002" sodipodi:r2="64.03392" sodipodi:arg1="0.52359878" sodipodi:arg2="1.0471976" inkscape:flatsided="true" inkscape:rounded="0" inkscape:randomized="0" d="m 146.07545,230.5674 -64.033916,36.97 -64.03392,-36.97 0,-73.94 64.033921,-36.97001 64.033925,36.97001 z" inkscape:transform-center-x="3.0492663e-06" inkscape:transform-center-y="-6.6020762e-06"></path></clipPath><clipPath clipPathUnits="userSpaceOnUse" id="SvgjsClipPath1250"><path sodipodi:type="star" style="opacity:1;fill:none;fill-opacity:0.97979796;stroke:#a71b1e;stroke-width:4;stroke-miterlimit:4;stroke-dasharray:none;stroke-dashoffset:0;stroke-opacity:1" id="SvgjsPath1249" sodipodi:sides="6" sodipodi:cx="102.62011" sodipodi:cy="146.68599" sodipodi:r1="73.940002" sodipodi:r2="64.03392" sodipodi:arg1="0.52359878" sodipodi:arg2="1.0471976" inkscape:flatsided="true" inkscape:rounded="0" inkscape:randomized="0" d="m 166.65403,183.65599 -64.03392,36.97 -64.033921,-36.97 0,-73.94 64.033921,-36.970003 64.03392,36.970003 z" inkscape:transform-center-x="3.0492663e-06" inkscape:transform-center-y="-6.6020762e-06"></path></clipPath><clipPath clipPathUnits="userSpaceOnUse" id="SvgjsClipPath1248"><path sodipodi:type="star" style="opacity:1;fill:none;fill-opacity:0.97979796;stroke:#a71b1e;stroke-width:4;stroke-miterlimit:4;stroke-dasharray:none;stroke-dashoffset:0;stroke-opacity:1" id="SvgjsPath1247" sodipodi:sides="6" sodipodi:cx="102.62011" sodipodi:cy="146.68599" sodipodi:r1="73.940002" sodipodi:r2="64.03392" sodipodi:arg1="0.52359878" sodipodi:arg2="1.0471976" inkscape:flatsided="true" inkscape:rounded="0" inkscape:randomized="0" d="m 166.65403,183.65599 -64.03392,36.97 -64.033921,-36.97 0,-73.94 64.033921,-36.970003 64.03392,36.970003 z" inkscape:transform-center-x="3.0492663e-06" inkscape:transform-center-y="-6.6020762e-06"></path></clipPath><clipPath clipPathUnits="userSpaceOnUse" id="SvgjsClipPath1246"><path sodipodi:type="star" style="opacity:1;fill:none;fill-opacity:0.97979796;stroke:#a71b1e;stroke-width:4;stroke-miterlimit:4;stroke-dasharray:none;stroke-dashoffset:0;stroke-opacity:1" id="SvgjsPath1245" sodipodi:sides="6" sodipodi:cx="102.62011" sodipodi:cy="146.68599" sodipodi:r1="73.940002" sodipodi:r2="64.03392" sodipodi:arg1="0.52359878" sodipodi:arg2="1.0471976" inkscape:flatsided="true" inkscape:rounded="0" inkscape:randomized="0" d="m 166.65403,183.65599 -64.03392,36.97 -64.033921,-36.97 0,-73.94 64.033921,-36.970003 64.03392,36.970003 z" inkscape:transform-center-x="3.0492663e-06" inkscape:transform-center-y="-6.6020762e-06"></path></clipPath><mask maskUnits="userSpaceOnUse" id="SvgjsMask1244"><g id="SvgjsG1243"><rect style="opacity:1;vector-effect:none;fill:#578dc5;fill-opacity:1;stroke:none;stroke-width:0.1457504;stroke-linecap:butt;stroke-linejoin:miter;stroke-miterlimit:4;stroke-dasharray:none;stroke-dashoffset:0;stroke-opacity:1" id="SvgjsRect1242" width="33.598763" height="33.598763" x="68.167076" y="168.22989"></rect><rect style="opacity:1;vector-effect:none;fill:#578dc5;fill-opacity:1;stroke:none;stroke-width:0.1457504;stroke-linecap:butt;stroke-linejoin:miter;stroke-miterlimit:4;stroke-dasharray:none;stroke-dashoffset:0;stroke-opacity:1" id="SvgjsRect1241" width="33.598763" height="33.598763" x="101.76582" y="168.22989"></rect></g></mask><clipPath clipPathUnits="userSpaceOnUse" id="SvgjsClipPath1240"><path style="fill:#4e7dab;fill-opacity:1;stroke:none;stroke-width:0.15277882px;stroke-linecap:butt;stroke-linejoin:miter;stroke-opacity:1" d="m 17.061585,168.35154 -67.03291,-0.0227 0.0035,3.79683 z" id="SvgjsPath1239" inkscape:connector-curvature="0"></path></clipPath><clipPath clipPathUnits="userSpaceOnUse" id="SvgjsClipPath1238"><path style="fill:#4e7dab;fill-opacity:1;stroke:none;stroke-width:0.15277882px;stroke-linecap:butt;stroke-linejoin:miter;stroke-opacity:1" d="m 17.061585,168.35154 -67.03291,-0.0227 0.0035,3.79683 z" id="SvgjsPath1237" inkscape:connector-curvature="0"></path></clipPath><clipPath clipPathUnits="userSpaceOnUse" id="SvgjsClipPath1236"><path inkscape:connector-curvature="0" id="SvgjsPath1235" d="m -80.436897,-134.84488 94.93643,0.0234 -0.005,-3.91921 z" style="fill:#588fc6;fill-opacity:1;stroke:#588fc6;stroke-width:0.18472448px;stroke-linecap:butt;stroke-linejoin:miter;stroke-opacity:1"></path></clipPath><clipPath clipPathUnits="userSpaceOnUse" id="SvgjsClipPath1234"><path inkscape:connector-curvature="0" id="SvgjsPath1233" d="m -80.436897,-134.84488 94.93643,0.0234 -0.005,-3.91921 z" style="fill:#588fc6;fill-opacity:1;stroke:#588fc6;stroke-width:0.18472448px;stroke-linecap:butt;stroke-linejoin:miter;stroke-opacity:1"></path></clipPath><clipPath clipPathUnits="userSpaceOnUse" id="SvgjsClipPath1232"><path inkscape:connector-curvature="0" id="SvgjsPath1231" d="m -80.436897,-134.84488 94.93643,0.0234 -0.005,-3.91921 z" style="fill:#588fc6;fill-opacity:1;stroke:#588fc6;stroke-width:0.18472448px;stroke-linecap:butt;stroke-linejoin:miter;stroke-opacity:1"></path></clipPath><radialGradient inkscape:collect="always" xlink:href="#linearGradient1382" id="SvgjsRadialGradient1230" cx="102.62011" cy="146.68599" fx="102.62011" fy="146.68599" r="66.033921" gradientTransform="matrix(1,0,0,1.1547005,0,-22.692401)" gradientUnits="userSpaceOnUse"></radialGradient><rect x="392.81646" y="215.21501" width="86.347665" height="116.76559" id="SvgjsRect1229"></rect></defs><sodipodi:namedview id="SvgjsSodipodi:namedview1228" pagecolor="#ffffff" bordercolor="#666666" borderopacity="1.0" inkscape:pageopacity="0.0" inkscape:pageshadow="2" inkscape:zoom="0.76435188" inkscape:cx="533.78556" inkscape:cy="510.89035" inkscape:document-units="mm" inkscape:current-layer="layer1" showgrid="false" inkscape:window-width="1920" inkscape:window-height="1009" inkscape:window-x="-8" inkscape:window-y="468" inkscape:window-maximized="1" fit-margin-top="0" fit-margin-left="0" fit-margin-right="0" fit-margin-bottom="0" inkscape:document-rotation="0" inkscape:showpageshadow="2" inkscape:pagecheckerboard="0" inkscape:deskcolor="#d1d1d1"></sodipodi:namedview><metadata id="SvgjsMetadata1227"><rdf:RDF><cc:Work rdf:about=""><dc:format>image/svg+xml</dc:format><dc:type rdf:resource="http://purl.org/dc/dcmitype/StillImage"></dc:type><dc:title></dc:title></cc:Work></rdf:RDF></metadata><g inkscape:label="Layer 1" inkscape:groupmode="layer" id="SvgjsG1226" transform="translate(-36.586189,-70.436586)"><path inkscape:transform-center-y="-6.6020762e-06" inkscape:transform-center-x="3.0492663e-06" d="m 166.65403,183.65599 -64.03392,36.97 -64.033921,-36.97 0,-73.94 64.033921,-36.970003 64.03392,36.970003 z" inkscape:randomized="0" inkscape:rounded="0" inkscape:flatsided="true" sodipodi:arg2="1.0471976" sodipodi:arg1="0.52359878" sodipodi:r2="64.03392" sodipodi:r1="73.940002" sodipodi:cy="146.68599" sodipodi:cx="102.62011" sodipodi:sides="6" id="SvgjsPath1225" style="opacity:1;fill:url(#radialGradient1384);fill-opacity:1;stroke:#20336c;stroke-width:4;stroke-miterlimit:4;stroke-dasharray:none;stroke-dashoffset:0;stroke-opacity:1" sodipodi:type="star"></path><g aria-label="miniCRAN" style="font-style:normal;font-variant:normal;font-weight:normal;font-stretch:normal;font-size:10.5833px;line-height:1.25;font-family:'Segoe ui';-inkscape-font-specification:'Segoe ui';text-align:center;letter-spacing:0px;word-spacing:0px;text-anchor:middle;fill:#121c3b;fill-opacity:1;stroke:#000000;stroke-width:1.165;stroke-miterlimit:4;stroke-dasharray:none;stroke-opacity:1" id="SvgjsG1224" transform="translate(-5.5408581,3.2095653)"><g aria-label="config" id="SvgjsG1223" style="font-style:normal;font-variant:normal;font-weight:normal;font-stretch:normal;font-size:25.4px;line-height:1.25;font-family:'Segoe UI';-inkscape-font-specification:'Segoe UI, Normal';font-variant-ligatures:normal;font-variant-caps:normal;font-variant-numeric:normal;font-feature-settings:normal;text-align:start;letter-spacing:0px;word-spacing:0px;writing-mode:lr-tb;text-anchor:start;fill:#121c3b;fill-opacity:1;stroke:none;stroke-width:0.30824"><path d="m 82.971806,186.91457 q -1.16582,0.5581 -2.220019,0.86816 -1.041797,0.31006 -2.22002,0.31006 -1.500683,0 -2.75332,-0.43408 -1.252637,-0.44649 -2.145606,-1.33946 -0.905371,-0.89297 -1.401464,-2.25722 -0.496094,-1.36426 -0.496094,-3.18741 0,-3.39824 1.860351,-5.333 1.872754,-1.93477 4.936133,-1.93477 1.190625,0 2.331641,0.33486 1.153418,0.33487 2.108398,0.81856 v 2.59209 h -0.124023 q -1.066602,-0.83096 -2.207617,-1.27744 -1.128614,-0.44649 -2.207618,-0.44649 -1.984375,0 -3.137793,1.33946 -1.141015,1.32705 -1.141015,3.90673 0,2.50528 1.116211,3.85713 1.128613,1.33946 3.162597,1.33946 0.706934,0 1.438672,-0.18604 0.731739,-0.18603 1.314649,-0.48369 0.508496,-0.26045 0.95498,-0.5457 0.446484,-0.29766 0.706934,-0.5085 h 0.124023 z" style="font-style:normal;font-variant:normal;font-weight:normal;font-stretch:normal;font-size:25.4px;font-family:sans-serif;-inkscape-font-specification:sans-serif;fill:#121c3b;fill-opacity:1;stroke-width:0.30824" id="SvgjsPath1222"></path><path d="m 97.767802,180.86222 q 0,3.38584 -1.736328,5.34541 -1.736329,1.95957 -4.650879,1.95957 -2.939356,0 -4.675684,-1.95957 -1.723926,-1.95957 -1.723926,-5.34541 0,-3.38584 1.723926,-5.34541 1.736328,-1.97197 4.675684,-1.97197 2.91455,0 4.650879,1.97197 1.736328,1.95957 1.736328,5.34541 z m -2.406055,0 q 0,-2.69131 -1.054199,-3.99355 -1.054199,-1.31465 -2.926953,-1.31465 -1.897559,0 -2.951758,1.31465 -1.041797,1.30224 -1.041797,3.99355 0,2.60449 1.054199,3.95635 1.054199,1.33945 2.939356,1.33945 1.860351,0 2.91455,-1.32705 1.066602,-1.33945 1.066602,-3.96875 z" style="font-style:normal;font-variant:normal;font-weight:normal;font-stretch:normal;font-size:25.4px;font-family:sans-serif;-inkscape-font-specification:sans-serif;fill:#121c3b;fill-opacity:1;stroke-width:0.30824" id="SvgjsPath1221"></path><path d="m 112.96067,187.78273 h -2.33164 v -7.88789 q 0,-0.95498 -0.11162,-1.78594 -0.11162,-0.84336 -0.40928,-1.31465 -0.31005,-0.52089 -0.89296,-0.76894 -0.58291,-0.26045 -1.51309,-0.26045 -0.95498,0 -1.99678,0.47129 -1.04179,0.47129 -1.99677,1.20303 v 10.34355 h -2.33165 v -13.85342 h 2.33165 v 1.53789 q 1.0914,-0.90537 2.25722,-1.41386 1.16582,-0.5085 2.39365,-0.5085 2.24483,0 3.42305,1.35186 1.17822,1.35185 1.17822,3.89433 z" style="font-style:normal;font-variant:normal;font-weight:normal;font-stretch:normal;font-size:25.4px;font-family:sans-serif;-inkscape-font-specification:sans-serif;fill:#121c3b;fill-opacity:1;stroke-width:0.30824" id="SvgjsPath1220"></path><path d="m 124.90413,170.74191 h -0.12402 q -0.38448,-0.11162 -1.00459,-0.22324 -0.62012,-0.12403 -1.09141,-0.12403 -1.50068,0 -2.18281,0.66973 -0.66973,0.65733 -0.66973,2.39365 v 0.47129 h 4.2044 v 1.95957 h -4.12998 v 11.89385 h -2.33165 v -11.89385 h -1.57509 v -1.95957 h 1.57509 v -0.45888 q 0,-2.46807 1.22784,-3.78272 1.22783,-1.32705 3.54707,-1.32705 0.78134,0 1.40146,0.0744 0.63252,0.0744 1.15342,0.17364 z" style="font-style:normal;font-variant:normal;font-weight:normal;font-stretch:normal;font-size:25.4px;font-family:sans-serif;-inkscape-font-specification:sans-serif;fill:#121c3b;fill-opacity:1;stroke-width:0.30824" id="SvgjsPath1219"></path><path d="m 128.88528,171.61007 h -2.62929 v -2.41845 h 2.62929 z m -0.14883,16.17266 h -2.33164 v -13.85342 h 2.33164 z" style="font-style:normal;font-variant:normal;font-weight:normal;font-stretch:normal;font-size:25.4px;font-family:sans-serif;-inkscape-font-specification:sans-serif;fill:#121c3b;fill-opacity:1;stroke-width:0.30824" id="SvgjsPath1218"></path><path d="m 144.58665,186.20763 q 0,3.52227 -1.5999,5.17178 -1.59991,1.64951 -4.92374,1.64951 -1.1038,0 -2.158,-0.16123 -1.0418,-0.14883 -2.05879,-0.43408 v -2.38125 h 0.12402 q 0.57051,0.22324 1.81074,0.5457 1.24024,0.33487 2.48047,0.33487 1.19063,0 1.97198,-0.28526 0.78134,-0.28525 1.21542,-0.79375 0.43409,-0.48369 0.62012,-1.16582 0.18604,-0.68213 0.18604,-1.52549 v -1.26504 q -1.0542,0.84336 -2.02158,1.26504 -0.95499,0.40928 -2.44327,0.40928 -2.48047,0 -3.94394,-1.78594 -1.45108,-1.79834 -1.45108,-5.06015 0,-1.78594 0.4961,-3.07578 0.50849,-1.30225 1.37666,-2.24483 0.80615,-0.88057 1.95957,-1.36426 1.15342,-0.49609 2.29443,-0.49609 1.20303,0 2.00918,0.24805 0.81856,0.23564 1.72393,0.73173 l 0.14883,-0.59531 h 2.18281 z m -2.33164,-2.23242 v -7.55303 q -0.93018,-0.42168 -1.73633,-0.59531 -0.79375,-0.18603 -1.5875,-0.18603 -1.92236,0 -3.02617,1.28984 -1.10381,1.28984 -1.10381,3.74551 0,2.33164 0.81855,3.53467 0.81856,1.20302 2.71612,1.20302 1.01699,0 2.03398,-0.38447 1.0294,-0.39688 1.88516,-1.0542 z" style="font-style:normal;font-variant:normal;font-weight:normal;font-stretch:normal;font-size:25.4px;font-family:sans-serif;-inkscape-font-specification:sans-serif;fill:#121c3b;fill-opacity:1;stroke-width:0.30824" id="SvgjsPath1217"></path></g></g><g id="SvgjsG1216" transform="matrix(2.233551,0,0,2.233551,236.77509,-265.84603)" inkscape:label="Gear" style="fill:none;fill-opacity:1;stroke:#b3b3b3"><g inkscape:label="Rendered Gears" transform="matrix(1.3287847,0,0,1.3287847,-60.063566,177.58434)" id="SvgjsG1215" style="display:inline;fill:none;fill-opacity:1;stroke:#b3b3b3"><path id="SvgjsPath1214" style="display:inline;fill:#48555d;fill-opacity:1;stroke:#b3b3b3;stroke-width:0.264583" d="m -0.52268161,-11.779179 -0.79641269,1.759282 -0.060767,0.6238622 0.1561833,1.0635087 -1.882905,0.504418 -0.3964652,-0.9990854 -0.3644276,-0.5098155 -1.5693196,-1.12532 -0.9054102,0.5226998 0.1897879,1.9217332 0.2594349,0.5705825 0.6670435,0.842902 -1.378487,1.378487 -0.842902,-0.6670435 -0.5705826,-0.2594348 -1.9217331,-0.1899621 -0.5227,0.9055843 1.1253202,1.5693196 0.5098155,0.3644276 0.9990853,0.3964652 -0.5044179,1.882905 -1.0635087,-0.1561833 -0.6238624,0.060767 -1.759108,0.7964127 v 1.04540052 l 1.759108,0.79641268 0.6238624,0.060593 1.0635087,-0.1561833 0.5044179,1.8830791 -0.9990853,0.3964652 -0.5098155,0.3644276 -1.1253202,1.5693196 0.5227,0.9054102 1.9217331,-0.1899621 0.5705826,-0.2592607 0.842902,-0.6670435 1.378487,1.378487 -0.6670435,0.842902 -0.2594349,0.5705826 -0.1897879,1.9217331 0.9054102,0.5226998 1.5693196,-1.1253199 0.3644276,-0.5099897 0.3964652,-0.9990853 1.882905,0.504592 -0.1561833,1.0635087 0.060767,0.6238622 0.79641269,1.759108 H 0.52271891 L 1.3191316,10.019964 1.3797245,9.3961017 1.2235412,8.332593 3.1066203,7.828001 3.5030855,8.8270863 3.8675131,9.337076 5.4368327,10.462396 6.3422429,9.9396961 6.1522808,8.017963 5.8930201,7.4473804 5.2259766,6.6044784 6.6044636,5.2259914 7.4473656,5.8930349 8.0179482,6.1522956 9.9396813,6.3422577 10.462382,5.4368475 9.3370611,3.8675279 8.8270714,3.5031003 7.8279861,3.1066351 8.3325782,1.223556 9.3960869,1.3797393 10.019949,1.3191464 11.779057,0.52273372 V -0.5226668 L 10.019949,-1.3190795 9.3960869,-1.3798465 8.3325782,-1.2236632 7.8279861,-3.1065682 8.8270714,-3.5030334 9.3370611,-3.867461 10.462382,-5.4367806 9.9396813,-6.3423649 8.0179482,-6.1524028 7.4473656,-5.892968 6.6044636,-5.2259245 5.2259766,-6.6044115 5.8930201,-7.4473135 6.1522808,-8.017896 6.3422429,-9.9396292 5.4368327,-10.462329 3.8675131,-9.337009 3.5030855,-8.8271935 3.1066203,-7.8281081 1.2235412,-8.3325261 1.3797245,-9.3960348 1.3191316,-10.019897 0.52271891,-11.779179 Z M 1.8648445e-5,-2.6458537 A 2.6458333,2.6458333 0 0 1 2.6459058,3.3461701e-5 2.6458333,2.6458333 0 0 1 1.8648445e-5,2.6457465 2.6458333,2.6458333 0 0 1 -2.6458685,3.3461701e-5 2.6458333,2.6458333 0 0 1 1.8648445e-5,-2.6458537 Z"></path></g></g><text xml:space="preserve" transform="matrix(0.33157565,0,0,0.33157565,-86.256414,73.043389)" id="SvgjsText1213" style="font-size:32px;line-height:1.2;font-family:sans-serif;-inkscape-font-specification:sans-serif;white-space:pre;shape-inside:url(#rect2);display:inline;fill:#49555d;fill-opacity:1;stroke-width:1.88976;stroke-opacity:0.980392" x="34.1875" y="0" svgjs:data="{&quot;leading&quot;:&quot;1.3&quot;}"><tspan x="408.78711" y="243.60941" id="SvgjsTspan1212"><tspan style="text-align:center;text-anchor:middle" id="SvgjsTspan1211">db:
</tspan></tspan><tspan x="405.51367" y="282.00941" id="SvgjsTspan1210"><tspan style="text-align:center;text-anchor:middle" id="SvgjsTspan1209">test</tspan></tspan></text><path style="fill:none;fill-opacity:1;stroke-width:2.47237;stroke-opacity:0.980392" d="m 314.33705,284.30831 c -0.81577,-17.71536 -4.3622,-28.88439 -13.40425,-42.21491 -3.64419,-5.37256 -9.837,-12.29329 -13.78656,-15.40707 -8.22834,-6.48713 -7.52741,-5.82163 -13.80453,-13.10669 -2.63502,-3.05815 -4.06894,-5.56027 -3.18648,-5.56027 4.3996,0 18.55493,9.28867 26.83643,17.60996 14.44165,14.51103 22.73919,33.16379 24.83453,55.82764 0.8758,9.473 0.8245,9.70279 -2.97331,13.31773 l -3.86448,3.6784 z" id="SvgjsPath1208" transform="matrix(0.26458333,0,0,0.26458333,36.586189,70.436586)"></path><path style="fill:none;fill-opacity:1;stroke-width:2.47237;stroke-opacity:0.980392" d="m 159.11679,251.31867 c -1.50284,-5.86375 -1.38749,-7.02712 1.32982,-13.41238 13.28697,-31.22227 37.32132,-53.17309 67.1933,-61.36835 8.68978,-2.384 12.76132,-2.74364 25.45285,-2.24819 24.09468,0.94058 40.23974,7.85966 58.56491,25.09841 11.72815,11.03283 17.06065,18.16074 24.08382,32.1926 5.74051,11.46918 6.22436,14.04999 3.79953,20.26659 -1.52628,3.91302 -1.54366,3.89125 -5.73848,-7.19563 -11.62677,-30.72946 -35.68803,-53.27895 -64.94731,-60.86668 -12.43038,-3.22354 -34.19267,-2.13797 -46.10645,2.29993 -28.12691,10.47732 -49.9038,34.07805 -59.7771,64.78348 l -2.20932,6.87089 z" id="SvgjsPath1207" transform="matrix(0.26458333,0,0,0.26458333,36.586189,70.436586)"></path><text xml:space="preserve" transform="matrix(0.33157565,0,0,0.33157565,4.4358899,73.043389)" id="SvgjsText1206" style="font-size:32px;line-height:1.2;font-family:sans-serif;-inkscape-font-specification:sans-serif;white-space:pre;shape-inside:url(#rect3);display:inline;fill:#49555d;fill-opacity:1;stroke-width:1.88976;stroke-opacity:0.980392" x="34.1875" y="0" svgjs:data="{&quot;leading&quot;:&quot;1.3&quot;}"><tspan x="408.78711" y="243.60941" id="SvgjsTspan1205"><tspan style="text-align:center;text-anchor:middle" id="SvgjsTspan1204">db:
</tspan></tspan><tspan x="399.51367" y="282.00941" id="SvgjsTspan1203"><tspan style="text-align:center;text-anchor:middle" id="SvgjsTspan1202">prod</tspan></tspan></text></g></svg><style>@media (prefers-color-scheme: light) { :root { filter: none; } }
@media (prefers-color-scheme: dark) { :root { filter: none; } }
</style></svg>