<?xml version="1.0" encoding="UTF-8" standalone="no"?>
<svg
   xmlns:dc="http://purl.org/dc/elements/1.1/"
   xmlns:cc="http://creativecommons.org/ns#"
   xmlns:rdf="http://www.w3.org/1999/02/22-rdf-syntax-ns#"
   xmlns:svg="http://www.w3.org/2000/svg"
   xmlns="http://www.w3.org/2000/svg"
   xmlns:sodipodi="http://sodipodi.sourceforge.net/DTD/sodipodi-0.dtd"
   xmlns:inkscape="http://www.inkscape.org/namespaces/inkscape"
   width="132.06784mm"
   height="152.49881mm"
   viewBox="0 0 132.06784 152.49881"
   version="1.1"
   id="svg8"
   inkscape:version="1.0.1 (3bc2e813f5, 2020-09-07)"
   sodipodi:docname="logo.svg"
   inkscape:export-filename="C:\Users\apdev\Documents\github\RStudio\config\man\figures\logo.png"
   inkscape:export-xdpi="46.16"
   inkscape:export-ydpi="46.16">
  <defs
     id="defs2">
    <clipPath
       clipPathUnits="userSpaceOnUse"
       id="clipPath842">
      <path
         sodipodi:type="star"
         style="opacity:1;fill:none;fill-opacity:0.97979796;stroke:#ffffff;stroke-width:3.11897802;stroke-miterlimit:4;stroke-dasharray:none;stroke-dashoffset:0;stroke-opacity:1"
         id="path844"
         sodipodi:sides="6"
         sodipodi:cx="82.041534"
         sodipodi:cy="193.5974"
         sodipodi:r1="73.940002"
         sodipodi:r2="64.03392"
         sodipodi:arg1="0.52359878"
         sodipodi:arg2="1.0471976"
         inkscape:flatsided="true"
         inkscape:rounded="0"
         inkscape:randomized="0"
         d="m 146.07545,230.5674 -64.033916,36.97 -64.03392,-36.97 0,-73.94 64.033921,-36.97001 64.033925,36.97001 z"
         inkscape:transform-center-x="3.0492663e-06"
         inkscape:transform-center-y="-6.6020762e-06" />
    </clipPath>
    <clipPath
       clipPathUnits="userSpaceOnUse"
       id="clipPath831">
      <path
         sodipodi:type="star"
         style="opacity:1;fill:none;fill-opacity:0.97979796;stroke:#a71b1e;stroke-width:4;stroke-miterlimit:4;stroke-dasharray:none;stroke-dashoffset:0;stroke-opacity:1"
         id="path833"
         sodipodi:sides="6"
         sodipodi:cx="102.62011"
         sodipodi:cy="146.68599"
         sodipodi:r1="73.940002"
         sodipodi:r2="64.03392"
         sodipodi:arg1="0.52359878"
         sodipodi:arg2="1.0471976"
         inkscape:flatsided="true"
         inkscape:rounded="0"
         inkscape:randomized="0"
         d="m 166.65403,183.65599 -64.03392,36.97 -64.033921,-36.97 0,-73.94 64.033921,-36.970003 64.03392,36.970003 z"
         inkscape:transform-center-x="3.0492663e-06"
         inkscape:transform-center-y="-6.6020762e-06" />
    </clipPath>
    <clipPath
       clipPathUnits="userSpaceOnUse"
       id="clipPath868">
      <path
         sodipodi:type="star"
         style="opacity:1;fill:none;fill-opacity:0.97979796;stroke:#a71b1e;stroke-width:4;stroke-miterlimit:4;stroke-dasharray:none;stroke-dashoffset:0;stroke-opacity:1"
         id="path870"
         sodipodi:sides="6"
         sodipodi:cx="102.62011"
         sodipodi:cy="146.68599"
         sodipodi:r1="73.940002"
         sodipodi:r2="64.03392"
         sodipodi:arg1="0.52359878"
         sodipodi:arg2="1.0471976"
         inkscape:flatsided="true"
         inkscape:rounded="0"
         inkscape:randomized="0"
         d="m 166.65403,183.65599 -64.03392,36.97 -64.033921,-36.97 0,-73.94 64.033921,-36.970003 64.03392,36.970003 z"
         inkscape:transform-center-x="3.0492663e-06"
         inkscape:transform-center-y="-6.6020762e-06" />
    </clipPath>
    <clipPath
       clipPathUnits="userSpaceOnUse"
       id="clipPath885">
      <path
         sodipodi:type="star"
         style="opacity:1;fill:none;fill-opacity:0.97979796;stroke:#a71b1e;stroke-width:4;stroke-miterlimit:4;stroke-dasharray:none;stroke-dashoffset:0;stroke-opacity:1"
         id="path887"
         sodipodi:sides="6"
         sodipodi:cx="102.62011"
         sodipodi:cy="146.68599"
         sodipodi:r1="73.940002"
         sodipodi:r2="64.03392"
         sodipodi:arg1="0.52359878"
         sodipodi:arg2="1.0471976"
         inkscape:flatsided="true"
         inkscape:rounded="0"
         inkscape:randomized="0"
         d="m 166.65403,183.65599 -64.03392,36.97 -64.033921,-36.97 0,-73.94 64.033921,-36.970003 64.03392,36.970003 z"
         inkscape:transform-center-x="3.0492663e-06"
         inkscape:transform-center-y="-6.6020762e-06" />
    </clipPath>
    <mask
       maskUnits="userSpaceOnUse"
       id="mask4825">
      <g
         id="g4831">
        <rect
           style="opacity:1;vector-effect:none;fill:#578dc5;fill-opacity:1;stroke:none;stroke-width:0.1457504;stroke-linecap:butt;stroke-linejoin:miter;stroke-miterlimit:4;stroke-dasharray:none;stroke-dashoffset:0;stroke-opacity:1"
           id="rect4827"
           width="33.598763"
           height="33.598763"
           x="68.167076"
           y="168.22989" />
        <rect
           style="opacity:1;vector-effect:none;fill:#578dc5;fill-opacity:1;stroke:none;stroke-width:0.1457504;stroke-linecap:butt;stroke-linejoin:miter;stroke-miterlimit:4;stroke-dasharray:none;stroke-dashoffset:0;stroke-opacity:1"
           id="rect4829"
           width="33.598763"
           height="33.598763"
           x="101.76582"
           y="168.22989" />
      </g>
    </mask>
    <clipPath
       clipPathUnits="userSpaceOnUse"
       id="clipPath4853">
      <path
         style="fill:#4e7dab;fill-opacity:1;stroke:none;stroke-width:0.15277882px;stroke-linecap:butt;stroke-linejoin:miter;stroke-opacity:1"
         d="m 17.061585,168.35154 -67.03291,-0.0227 0.0035,3.79683 z"
         id="path4855"
         inkscape:connector-curvature="0" />
    </clipPath>
    <clipPath
       clipPathUnits="userSpaceOnUse"
       id="clipPath4857">
      <path
         style="fill:#4e7dab;fill-opacity:1;stroke:none;stroke-width:0.15277882px;stroke-linecap:butt;stroke-linejoin:miter;stroke-opacity:1"
         d="m 17.061585,168.35154 -67.03291,-0.0227 0.0035,3.79683 z"
         id="path4859"
         inkscape:connector-curvature="0" />
    </clipPath>
    <clipPath
       clipPathUnits="userSpaceOnUse"
       id="clipPath4873">
      <path
         inkscape:connector-curvature="0"
         id="path4875"
         d="m -80.436897,-134.84488 94.93643,0.0234 -0.005,-3.91921 z"
         style="fill:#588fc6;fill-opacity:1;stroke:#588fc6;stroke-width:0.18472448px;stroke-linecap:butt;stroke-linejoin:miter;stroke-opacity:1" />
    </clipPath>
    <clipPath
       clipPathUnits="userSpaceOnUse"
       id="clipPath4877">
      <path
         inkscape:connector-curvature="0"
         id="path4879"
         d="m -80.436897,-134.84488 94.93643,0.0234 -0.005,-3.91921 z"
         style="fill:#588fc6;fill-opacity:1;stroke:#588fc6;stroke-width:0.18472448px;stroke-linecap:butt;stroke-linejoin:miter;stroke-opacity:1" />
    </clipPath>
    <clipPath
       clipPathUnits="userSpaceOnUse"
       id="clipPath4881">
      <path
         inkscape:connector-curvature="0"
         id="path4883"
         d="m -80.436897,-134.84488 94.93643,0.0234 -0.005,-3.91921 z"
         style="fill:#588fc6;fill-opacity:1;stroke:#588fc6;stroke-width:0.18472448px;stroke-linecap:butt;stroke-linejoin:miter;stroke-opacity:1" />
    </clipPath>
  </defs>
  <sodipodi:namedview
     id="base"
     pagecolor="#ffffff"
     bordercolor="#666666"
     borderopacity="1.0"
     inkscape:pageopacity="0.0"
     inkscape:pageshadow="2"
     inkscape:zoom="0.76435188"
     inkscape:cx="82.871139"
     inkscape:cy="323.83803"
     inkscape:document-units="mm"
     inkscape:current-layer="layer1"
     showgrid="false"
     inkscape:window-width="1920"
     inkscape:window-height="1017"
     inkscape:window-x="-8"
     inkscape:window-y="-8"
     inkscape:window-maximized="1"
     fit-margin-top="0"
     fit-margin-left="0"
     fit-margin-right="0"
     fit-margin-bottom="0"
     inkscape:document-rotation="0" />
  <metadata
     id="metadata5">
    <rdf:RDF>
      <cc:Work
         rdf:about="">
        <dc:format>image/svg+xml</dc:format>
        <dc:type
           rdf:resource="http://purl.org/dc/dcmitype/StillImage" />
        <dc:title />
      </cc:Work>
    </rdf:RDF>
  </metadata>
  <g
     inkscape:label="Layer 1"
     inkscape:groupmode="layer"
     id="layer1"
     transform="translate(-36.586189,-70.436586)">
    <path
       inkscape:transform-center-y="-6.6020762e-06"
       inkscape:transform-center-x="3.0492663e-06"
       d="m 166.65403,183.65599 -64.03392,36.97 -64.033921,-36.97 0,-73.94 64.033921,-36.970003 64.03392,36.970003 z"
       inkscape:randomized="0"
       inkscape:rounded="0"
       inkscape:flatsided="true"
       sodipodi:arg2="1.0471976"
       sodipodi:arg1="0.52359878"
       sodipodi:r2="64.03392"
       sodipodi:r1="73.940002"
       sodipodi:cy="146.68599"
       sodipodi:cx="102.62011"
       sodipodi:sides="6"
       id="path840"
       style="opacity:1;fill:#ab8e82;fill-opacity:1;stroke:#20336c;stroke-width:4;stroke-miterlimit:4;stroke-dasharray:none;stroke-dashoffset:0;stroke-opacity:1"
       sodipodi:type="star" />
    <g
       aria-label="miniCRAN"
       style="font-style:normal;font-variant:normal;font-weight:normal;font-stretch:normal;font-size:10.5833px;line-height:1.25;font-family:'Segoe ui';-inkscape-font-specification:'Segoe ui';text-align:center;letter-spacing:0px;word-spacing:0px;text-anchor:middle;fill:#121c3b;fill-opacity:1;stroke:#000000;stroke-width:1.165;stroke-miterlimit:4;stroke-dasharray:none;stroke-opacity:1"
       id="text989"
       transform="translate(-5.5408581,3.2095653)">
      <g
         aria-label="config"
         id="text894"
         style="font-style:normal;font-variant:normal;font-weight:normal;font-stretch:normal;font-size:25.4px;line-height:1.25;font-family:'Segoe UI';-inkscape-font-specification:'Segoe UI, Normal';font-variant-ligatures:normal;font-variant-caps:normal;font-variant-numeric:normal;font-feature-settings:normal;text-align:start;letter-spacing:0px;word-spacing:0px;writing-mode:lr-tb;text-anchor:start;fill:#121c3b;fill-opacity:1;stroke:none;stroke-width:0.30824">
        <path
           d="m 82.971806,186.91457 q -1.16582,0.5581 -2.220019,0.86816 -1.041797,0.31006 -2.22002,0.31006 -1.500683,0 -2.75332,-0.43408 -1.252637,-0.44649 -2.145606,-1.33946 -0.905371,-0.89297 -1.401464,-2.25722 -0.496094,-1.36426 -0.496094,-3.18741 0,-3.39824 1.860351,-5.333 1.872754,-1.93477 4.936133,-1.93477 1.190625,0 2.331641,0.33486 1.153418,0.33487 2.108398,0.81856 v 2.59209 h -0.124023 q -1.066602,-0.83096 -2.207617,-1.27744 -1.128614,-0.44649 -2.207618,-0.44649 -1.984375,0 -3.137793,1.33946 -1.141015,1.32705 -1.141015,3.90673 0,2.50528 1.116211,3.85713 1.128613,1.33946 3.162597,1.33946 0.706934,0 1.438672,-0.18604 0.731739,-0.18603 1.314649,-0.48369 0.508496,-0.26045 0.95498,-0.5457 0.446484,-0.29766 0.706934,-0.5085 h 0.124023 z"
           style="font-style:normal;font-variant:normal;font-weight:normal;font-stretch:normal;font-size:25.4px;font-family:sans-serif;-inkscape-font-specification:sans-serif;fill:#121c3b;fill-opacity:1;stroke-width:0.30824"
           id="path1240" />
        <path
           d="m 97.767802,180.86222 q 0,3.38584 -1.736328,5.34541 -1.736329,1.95957 -4.650879,1.95957 -2.939356,0 -4.675684,-1.95957 -1.723926,-1.95957 -1.723926,-5.34541 0,-3.38584 1.723926,-5.34541 1.736328,-1.97197 4.675684,-1.97197 2.91455,0 4.650879,1.97197 1.736328,1.95957 1.736328,5.34541 z m -2.406055,0 q 0,-2.69131 -1.054199,-3.99355 -1.054199,-1.31465 -2.926953,-1.31465 -1.897559,0 -2.951758,1.31465 -1.041797,1.30224 -1.041797,3.99355 0,2.60449 1.054199,3.95635 1.054199,1.33945 2.939356,1.33945 1.860351,0 2.91455,-1.32705 1.066602,-1.33945 1.066602,-3.96875 z"
           style="font-style:normal;font-variant:normal;font-weight:normal;font-stretch:normal;font-size:25.4px;font-family:sans-serif;-inkscape-font-specification:sans-serif;fill:#121c3b;fill-opacity:1;stroke-width:0.30824"
           id="path1242" />
        <path
           d="m 112.96067,187.78273 h -2.33164 v -7.88789 q 0,-0.95498 -0.11162,-1.78594 -0.11162,-0.84336 -0.40928,-1.31465 -0.31005,-0.52089 -0.89296,-0.76894 -0.58291,-0.26045 -1.51309,-0.26045 -0.95498,0 -1.99678,0.47129 -1.04179,0.47129 -1.99677,1.20303 v 10.34355 h -2.33165 v -13.85342 h 2.33165 v 1.53789 q 1.0914,-0.90537 2.25722,-1.41386 1.16582,-0.5085 2.39365,-0.5085 2.24483,0 3.42305,1.35186 1.17822,1.35185 1.17822,3.89433 z"
           style="font-style:normal;font-variant:normal;font-weight:normal;font-stretch:normal;font-size:25.4px;font-family:sans-serif;-inkscape-font-specification:sans-serif;fill:#121c3b;fill-opacity:1;stroke-width:0.30824"
           id="path1244" />
        <path
           d="m 124.90413,170.74191 h -0.12402 q -0.38448,-0.11162 -1.00459,-0.22324 -0.62012,-0.12403 -1.09141,-0.12403 -1.50068,0 -2.18281,0.66973 -0.66973,0.65733 -0.66973,2.39365 v 0.47129 h 4.2044 v 1.95957 h -4.12998 v 11.89385 h -2.33165 v -11.89385 h -1.57509 v -1.95957 h 1.57509 v -0.45888 q 0,-2.46807 1.22784,-3.78272 1.22783,-1.32705 3.54707,-1.32705 0.78134,0 1.40146,0.0744 0.63252,0.0744 1.15342,0.17364 z"
           style="font-style:normal;font-variant:normal;font-weight:normal;font-stretch:normal;font-size:25.4px;font-family:sans-serif;-inkscape-font-specification:sans-serif;fill:#121c3b;fill-opacity:1;stroke-width:0.30824"
           id="path1246" />
        <path
           d="m 128.88528,171.61007 h -2.62929 v -2.41845 h 2.62929 z m -0.14883,16.17266 h -2.33164 v -13.85342 h 2.33164 z"
           style="font-style:normal;font-variant:normal;font-weight:normal;font-stretch:normal;font-size:25.4px;font-family:sans-serif;-inkscape-font-specification:sans-serif;fill:#121c3b;fill-opacity:1;stroke-width:0.30824"
           id="path1248" />
        <path
           d="m 144.58665,186.20763 q 0,3.52227 -1.5999,5.17178 -1.59991,1.64951 -4.92374,1.64951 -1.1038,0 -2.158,-0.16123 -1.0418,-0.14883 -2.05879,-0.43408 v -2.38125 h 0.12402 q 0.57051,0.22324 1.81074,0.5457 1.24024,0.33487 2.48047,0.33487 1.19063,0 1.97198,-0.28526 0.78134,-0.28525 1.21542,-0.79375 0.43409,-0.48369 0.62012,-1.16582 0.18604,-0.68213 0.18604,-1.52549 v -1.26504 q -1.0542,0.84336 -2.02158,1.26504 -0.95499,0.40928 -2.44327,0.40928 -2.48047,0 -3.94394,-1.78594 -1.45108,-1.79834 -1.45108,-5.06015 0,-1.78594 0.4961,-3.07578 0.50849,-1.30225 1.37666,-2.24483 0.80615,-0.88057 1.95957,-1.36426 1.15342,-0.49609 2.29443,-0.49609 1.20303,0 2.00918,0.24805 0.81856,0.23564 1.72393,0.73173 l 0.14883,-0.59531 h 2.18281 z m -2.33164,-2.23242 v -7.55303 q -0.93018,-0.42168 -1.73633,-0.59531 -0.79375,-0.18603 -1.5875,-0.18603 -1.92236,0 -3.02617,1.28984 -1.10381,1.28984 -1.10381,3.74551 0,2.33164 0.81855,3.53467 0.81856,1.20302 2.71612,1.20302 1.01699,0 2.03398,-0.38447 1.0294,-0.39688 1.88516,-1.0542 z"
           style="font-style:normal;font-variant:normal;font-weight:normal;font-stretch:normal;font-size:25.4px;font-family:sans-serif;-inkscape-font-specification:sans-serif;fill:#121c3b;fill-opacity:1;stroke-width:0.30824"
           id="path1250" />
      </g>
    </g>
    <g
       id="g1222"
       transform="matrix(1.0666055,0,0,1.0666055,-122.14368,-40.961084)">
      <path
         style="fill:#f3fce1;fill-opacity:1;stroke:#0f1b28;stroke-width:0.173606;stroke-opacity:1"
         d="m 220.43893,195.7488 c -8.16376,-0.75459 -16.90253,-5.07179 -19.8095,-12.98485 -2.07993,-6.58945 0.82335,-13.54637 5.22204,-18.56517 4.24058,-5.14041 7.78645,-10.78741 11.98266,-15.94864 3.17893,-3.41823 9.71752,-2.87692 12.20766,1.08326 4.86766,6.38363 9.49389,12.94633 14.60643,19.14892 2.9196,3.89197 3.1878,9.1667 2.14111,13.7218 -3.51601,10.29929 -16.15022,14.54906 -26.3504,13.54468 z"
         id="path934" />
      <path
         style="fill:#20336c;fill-opacity:1;stroke-width:0.173606"
         d="m 196.35589,193.5818 c -10.03401,-0.99873 -19.79102,-7.98415 -21.88291,-17.9103 -1.72291,-8.29232 1.69472,-16.65846 6.5611,-23.34543 4.3051,-6.39017 8.04404,-13.1292 12.33519,-19.52182 1.97481,-1.63242 3.92365,-2.77743 1.74863,-5.3403 -1.58876,-2.07621 -2.02506,-5.90971 1.8393,-4.57969 3.17308,0.98511 4.05886,4.42623 4.66537,7.2433 4.48021,1.46208 5.97315,6.28815 8.46015,9.72187 1.49143,2.41442 2.98079,4.83005 4.47133,7.24498 -4.61069,6.76845 -9.87383,13.09267 -14.47884,19.85747 -4.3697,6.78806 -4.70568,16.43727 0.91175,22.68063 1.03771,1.61877 5.80543,4.25789 1.24243,3.92808 -1.95358,0.10276 -3.92146,0.19205 -5.8735,0.0212 z"
         id="path956" />
      <path
         style="fill:#ffffff;stroke-width:0.173606"
         d="m 183.53032,175.44966 c 0.23736,-3.72218 -0.65941,-7.61214 1.03686,-11.16726 1.68144,-2.18773 1.86074,-6.94806 -2.066,-4.30298 -3.94407,3.35452 -4.89262,9.50438 -2.85374,14.03146 0.51785,1.23328 2.91082,3.24105 3.88288,1.43878 z"
         id="path958" />
      <path
         style="fill:#f53e2d;fill-opacity:1;stroke-width:0.211116"
         d="m 228.40897,190.75574 c 6.341,-1.22259 13.03336,-5.31641 14.37688,-11.87866 0.46197,-4.22478 -0.30963,-8.72716 -3.5512,-11.80968 -4.27507,-4.95172 -7.51758,-10.7397 -12.09859,-15.41454 -4.12643,-2.54661 -8.97054,0.17974 -10.78479,4.16194 -3.64034,5.70175 -8.96832,10.44134 -11.34651,16.84834 -1.68381,4.84782 -0.13615,10.43535 3.99717,13.62919 5.26399,4.47288 12.68256,5.69235 19.40704,4.46341 z"
         id="path938" />
      <path
         style="fill:#9e2a2e;fill-opacity:1;stroke:#000000;stroke-width:0.123705"
         d="m 233.31773,173.006 1.24307,-0.18254 0.72914,0.0709 2.05632,0.93088 v 1.22204 l -2.05632,0.93088 -0.72914,0.0709 -1.24307,-0.18254 -0.58976,2.20098 1.16779,0.46347 0.59603,0.42594 1.3154,1.83432 -0.61104,1.05834 -2.24628,-0.22199 -0.66687,-0.30321 -0.98526,-0.77963 -1.61126,1.61126 0.77963,0.98526 0.30321,0.66687 0.22199,2.24628 -1.05834,0.61104 -1.83432,-1.3154 -0.42594,-0.59603 -0.46347,-1.16779 -2.20098,0.58976 0.18254,1.24307 -0.0709,0.72914 -0.93088,2.05632 H 222.967 l -0.93088,-2.05632 -0.0709,-0.72914 0.18254,-1.24307 -2.20098,-0.58976 -0.46347,1.16779 -0.42594,0.59603 -1.83432,1.3154 -1.05834,-0.61104 0.22199,-2.24628 0.30321,-0.66687 0.77963,-0.98526 -1.61126,-1.61126 -0.98526,0.77963 -0.66687,0.30321 -2.24628,0.22199 -0.61104,-1.05834 1.3154,-1.83432 0.59603,-0.42594 1.16779,-0.46347 -0.58976,-2.20098 -1.24307,0.18254 -0.72914,-0.0709 -2.05632,-0.93088 v -1.22204 l 2.05632,-0.93088 0.72914,-0.0709 1.24307,0.18254 0.58976,-2.20098 -1.16779,-0.46347 -0.59603,-0.42594 -1.3154,-1.83432 0.61104,-1.05834 2.24628,0.22199 0.66687,0.30321 0.98526,0.77963 1.61126,-1.61126 -0.77963,-0.98526 -0.30321,-0.66687 -0.22199,-2.24628 1.05834,-0.61104 1.83432,1.3154 0.42594,0.59603 0.46347,1.16779 2.20098,-0.58976 -0.18254,-1.24307 0.0709,-0.72914 0.93088,-2.05632 h 1.22204 l 0.93088,2.05632 0.0709,0.72914 -0.18254,1.24307 2.20098,0.58976 0.46347,-1.16779 0.42594,-0.59603 1.83432,-1.3154 1.05834,0.61104 -0.22199,2.24628 -0.30321,0.66687 -0.77963,0.98526 1.61126,1.61126 0.98526,-0.77963 0.66687,-0.30321 2.24628,-0.22199 0.61104,1.05834 -1.3154,1.83432 -0.59603,0.42594 -1.16779,0.46347 z"
         id="path1198" />
      <path
         style="fill:#f53e2d;fill-opacity:1;stroke:#000000;stroke-width:0.123705"
         d="m 224.81507,174.43623 a 1.2370522,1.2370522 0 0 1 -1.23705,1.23706 1.2370522,1.2370522 0 0 1 -1.23705,-1.23706 1.2370522,1.2370522 0 0 1 1.23705,-1.23705 1.2370522,1.2370522 0 0 1 1.23705,1.23705 z"
         id="path1200" />
    </g>
  </g>
</svg>
