<?xml version="1.0" encoding="UTF-8" standalone="no"?>
<svg
   xmlns:dc="http://purl.org/dc/elements/1.1/"
   xmlns:cc="http://creativecommons.org/ns#"
   xmlns:rdf="http://www.w3.org/1999/02/22-rdf-syntax-ns#"
   xmlns:svg="http://www.w3.org/2000/svg"
   xmlns="http://www.w3.org/2000/svg"
   xmlns:xlink="http://www.w3.org/1999/xlink"
   xmlns:sodipodi="http://sodipodi.sourceforge.net/DTD/sodipodi-0.dtd"
   xmlns:inkscape="http://www.inkscape.org/namespaces/inkscape"
   width="132.06784mm"
   height="152.49881mm"
   viewBox="0 0 132.06784 152.49881"
   version="1.1"
   id="svg8"
   inkscape:version="1.0.1 (3bc2e813f5, 2020-09-07)"
   sodipodi:docname="logo.svg"
   inkscape:export-filename="C:\Users\apdev\Documents\github\RStudio\config\man\figures\logo.png"
   inkscape:export-xdpi="46.16"
   inkscape:export-ydpi="46.16">
  <defs
     id="defs2">
    <linearGradient
       inkscape:collect="always"
       id="linearGradient1382">
      <stop
         style="stop-color:#a05a2c;stop-opacity:1"
         offset="0"
         id="stop1378" />
      <stop
         style="stop-color:#deaa87;stop-opacity:1"
         offset="1"
         id="stop1380" />
    </linearGradient>
    <clipPath
       clipPathUnits="userSpaceOnUse"
       id="clipPath842">
      <path
         sodipodi:type="star"
         style="opacity:1;fill:none;fill-opacity:0.97979796;stroke:#ffffff;stroke-width:3.11897802;stroke-miterlimit:4;stroke-dasharray:none;stroke-dashoffset:0;stroke-opacity:1"
         id="path844"
         sodipodi:sides="6"
         sodipodi:cx="82.041534"
         sodipodi:cy="193.5974"
         sodipodi:r1="73.940002"
         sodipodi:r2="64.03392"
         sodipodi:arg1="0.52359878"
         sodipodi:arg2="1.0471976"
         inkscape:flatsided="true"
         inkscape:rounded="0"
         inkscape:randomized="0"
         d="m 146.07545,230.5674 -64.033916,36.97 -64.03392,-36.97 0,-73.94 64.033921,-36.97001 64.033925,36.97001 z"
         inkscape:transform-center-x="3.0492663e-06"
         inkscape:transform-center-y="-6.6020762e-06" />
    </clipPath>
    <clipPath
       clipPathUnits="userSpaceOnUse"
       id="clipPath831">
      <path
         sodipodi:type="star"
         style="opacity:1;fill:none;fill-opacity:0.97979796;stroke:#a71b1e;stroke-width:4;stroke-miterlimit:4;stroke-dasharray:none;stroke-dashoffset:0;stroke-opacity:1"
         id="path833"
         sodipodi:sides="6"
         sodipodi:cx="102.62011"
         sodipodi:cy="146.68599"
         sodipodi:r1="73.940002"
         sodipodi:r2="64.03392"
         sodipodi:arg1="0.52359878"
         sodipodi:arg2="1.0471976"
         inkscape:flatsided="true"
         inkscape:rounded="0"
         inkscape:randomized="0"
         d="m 166.65403,183.65599 -64.03392,36.97 -64.033921,-36.97 0,-73.94 64.033921,-36.970003 64.03392,36.970003 z"
         inkscape:transform-center-x="3.0492663e-06"
         inkscape:transform-center-y="-6.6020762e-06" />
    </clipPath>
    <clipPath
       clipPathUnits="userSpaceOnUse"
       id="clipPath868">
      <path
         sodipodi:type="star"
         style="opacity:1;fill:none;fill-opacity:0.97979796;stroke:#a71b1e;stroke-width:4;stroke-miterlimit:4;stroke-dasharray:none;stroke-dashoffset:0;stroke-opacity:1"
         id="path870"
         sodipodi:sides="6"
         sodipodi:cx="102.62011"
         sodipodi:cy="146.68599"
         sodipodi:r1="73.940002"
         sodipodi:r2="64.03392"
         sodipodi:arg1="0.52359878"
         sodipodi:arg2="1.0471976"
         inkscape:flatsided="true"
         inkscape:rounded="0"
         inkscape:randomized="0"
         d="m 166.65403,183.65599 -64.03392,36.97 -64.033921,-36.97 0,-73.94 64.033921,-36.970003 64.03392,36.970003 z"
         inkscape:transform-center-x="3.0492663e-06"
         inkscape:transform-center-y="-6.6020762e-06" />
    </clipPath>
    <clipPath
       clipPathUnits="userSpaceOnUse"
       id="clipPath885">
      <path
         sodipodi:type="star"
         style="opacity:1;fill:none;fill-opacity:0.97979796;stroke:#a71b1e;stroke-width:4;stroke-miterlimit:4;stroke-dasharray:none;stroke-dashoffset:0;stroke-opacity:1"
         id="path887"
         sodipodi:sides="6"
         sodipodi:cx="102.62011"
         sodipodi:cy="146.68599"
         sodipodi:r1="73.940002"
         sodipodi:r2="64.03392"
         sodipodi:arg1="0.52359878"
         sodipodi:arg2="1.0471976"
         inkscape:flatsided="true"
         inkscape:rounded="0"
         inkscape:randomized="0"
         d="m 166.65403,183.65599 -64.03392,36.97 -64.033921,-36.97 0,-73.94 64.033921,-36.970003 64.03392,36.970003 z"
         inkscape:transform-center-x="3.0492663e-06"
         inkscape:transform-center-y="-6.6020762e-06" />
    </clipPath>
    <mask
       maskUnits="userSpaceOnUse"
       id="mask4825">
      <g
         id="g4831">
        <rect
           style="opacity:1;vector-effect:none;fill:#578dc5;fill-opacity:1;stroke:none;stroke-width:0.1457504;stroke-linecap:butt;stroke-linejoin:miter;stroke-miterlimit:4;stroke-dasharray:none;stroke-dashoffset:0;stroke-opacity:1"
           id="rect4827"
           width="33.598763"
           height="33.598763"
           x="68.167076"
           y="168.22989" />
        <rect
           style="opacity:1;vector-effect:none;fill:#578dc5;fill-opacity:1;stroke:none;stroke-width:0.1457504;stroke-linecap:butt;stroke-linejoin:miter;stroke-miterlimit:4;stroke-dasharray:none;stroke-dashoffset:0;stroke-opacity:1"
           id="rect4829"
           width="33.598763"
           height="33.598763"
           x="101.76582"
           y="168.22989" />
      </g>
    </mask>
    <clipPath
       clipPathUnits="userSpaceOnUse"
       id="clipPath4853">
      <path
         style="fill:#4e7dab;fill-opacity:1;stroke:none;stroke-width:0.15277882px;stroke-linecap:butt;stroke-linejoin:miter;stroke-opacity:1"
         d="m 17.061585,168.35154 -67.03291,-0.0227 0.0035,3.79683 z"
         id="path4855"
         inkscape:connector-curvature="0" />
    </clipPath>
    <clipPath
       clipPathUnits="userSpaceOnUse"
       id="clipPath4857">
      <path
         style="fill:#4e7dab;fill-opacity:1;stroke:none;stroke-width:0.15277882px;stroke-linecap:butt;stroke-linejoin:miter;stroke-opacity:1"
         d="m 17.061585,168.35154 -67.03291,-0.0227 0.0035,3.79683 z"
         id="path4859"
         inkscape:connector-curvature="0" />
    </clipPath>
    <clipPath
       clipPathUnits="userSpaceOnUse"
       id="clipPath4873">
      <path
         inkscape:connector-curvature="0"
         id="path4875"
         d="m -80.436897,-134.84488 94.93643,0.0234 -0.005,-3.91921 z"
         style="fill:#588fc6;fill-opacity:1;stroke:#588fc6;stroke-width:0.18472448px;stroke-linecap:butt;stroke-linejoin:miter;stroke-opacity:1" />
    </clipPath>
    <clipPath
       clipPathUnits="userSpaceOnUse"
       id="clipPath4877">
      <path
         inkscape:connector-curvature="0"
         id="path4879"
         d="m -80.436897,-134.84488 94.93643,0.0234 -0.005,-3.91921 z"
         style="fill:#588fc6;fill-opacity:1;stroke:#588fc6;stroke-width:0.18472448px;stroke-linecap:butt;stroke-linejoin:miter;stroke-opacity:1" />
    </clipPath>
    <clipPath
       clipPathUnits="userSpaceOnUse"
       id="clipPath4881">
      <path
         inkscape:connector-curvature="0"
         id="path4883"
         d="m -80.436897,-134.84488 94.93643,0.0234 -0.005,-3.91921 z"
         style="fill:#588fc6;fill-opacity:1;stroke:#588fc6;stroke-width:0.18472448px;stroke-linecap:butt;stroke-linejoin:miter;stroke-opacity:1" />
    </clipPath>
    <radialGradient
       inkscape:collect="always"
       xlink:href="#linearGradient1382"
       id="radialGradient1384"
       cx="102.62011"
       cy="146.68599"
       fx="102.62011"
       fy="146.68599"
       r="66.033921"
       gradientTransform="matrix(1,0,0,1.1547005,0,-22.692401)"
       gradientUnits="userSpaceOnUse" />
  </defs>
  <sodipodi:namedview
     id="base"
     pagecolor="#ffffff"
     bordercolor="#666666"
     borderopacity="1.0"
     inkscape:pageopacity="0.0"
     inkscape:pageshadow="2"
     inkscape:zoom="1.0809568"
     inkscape:cx="284.20364"
     inkscape:cy="335.55641"
     inkscape:document-units="mm"
     inkscape:current-layer="layer1"
     showgrid="false"
     inkscape:window-width="1920"
     inkscape:window-height="1017"
     inkscape:window-x="-8"
     inkscape:window-y="-8"
     inkscape:window-maximized="1"
     fit-margin-top="0"
     fit-margin-left="0"
     fit-margin-right="0"
     fit-margin-bottom="0"
     inkscape:document-rotation="0" />
  <metadata
     id="metadata5">
    <rdf:RDF>
      <cc:Work
         rdf:about="">
        <dc:format>image/svg+xml</dc:format>
        <dc:type
           rdf:resource="http://purl.org/dc/dcmitype/StillImage" />
        <dc:title />
      </cc:Work>
    </rdf:RDF>
  </metadata>
  <g
     inkscape:label="Layer 1"
     inkscape:groupmode="layer"
     id="layer1"
     transform="translate(-36.586189,-70.436586)">
    <path
       inkscape:transform-center-y="-6.6020762e-06"
       inkscape:transform-center-x="3.0492663e-06"
       d="m 166.65403,183.65599 -64.03392,36.97 -64.033921,-36.97 0,-73.94 64.033921,-36.970003 64.03392,36.970003 z"
       inkscape:randomized="0"
       inkscape:rounded="0"
       inkscape:flatsided="true"
       sodipodi:arg2="1.0471976"
       sodipodi:arg1="0.52359878"
       sodipodi:r2="64.03392"
       sodipodi:r1="73.940002"
       sodipodi:cy="146.68599"
       sodipodi:cx="102.62011"
       sodipodi:sides="6"
       id="path840"
       style="opacity:1;fill:url(#radialGradient1384);fill-opacity:1;stroke:#20336c;stroke-width:4;stroke-miterlimit:4;stroke-dasharray:none;stroke-dashoffset:0;stroke-opacity:1"
       sodipodi:type="star" />
    <g
       id="g1013">
      <path
         id="path1239"
         style="fill:#8e62df;fill-opacity:1;stroke:none;stroke-width:0.56642;stroke-miterlimit:4;stroke-dasharray:none"
         d="m 104.63019,91.136345 c -0.65677,0.517853 -1.19523,1.176291 -1.80187,1.753006 -1.87621,1.905541 -3.866882,3.697907 -5.923104,5.406827 -4.020886,3.305212 -8.402397,6.131522 -12.537753,9.285132 -2.489045,1.87766 -4.741512,4.13532 -6.286827,6.8641 -2.302342,3.99368 -3.166549,8.6685 -3.110977,13.2387 0.02511,3.67795 0.625881,7.46089 2.492994,10.68273 0.835165,1.49785 1.973738,2.79382 3.187642,3.99438 1.465878,1.46735 2.939913,2.93622 4.550688,4.24577 1.7781,1.30782 3.822355,2.1966 5.863477,3.0078 1.794568,0.68003 3.627444,1.28956 5.513745,1.65492 0.404871,0.0691 5.033055,0.57197 5.254805,0.19965 -1.16796,-0.3546 -2.922382,-1.34001 -3.242855,-1.5756 -0.320472,-0.23558 -1.279217,-0.90263 -1.949439,-1.47096 -2.329739,-2.04823 -4.028228,-4.65034 -5.165103,-7.50441 -1.764471,-4.28684 -2.534591,-8.9212 -2.52169,-13.55566 0.01732,-4.79653 0.98696,-9.54219 2.757457,-14.00402 0.815042,-2.02798 1.699707,-4.06947 3.067133,-5.78159 1.933302,-2.54865 3.914305,-4.98172 5.834397,-7.54072 1.72244,-2.282752 3.31271,-4.554201 4.90068,-6.933729 0.28836,-0.458435 1.04471,-1.38611 0.7623,-1.941092 -0.11517,-0.325591 0.0605,-0.66648 -0.0547,-0.992071 -0.32128,0.19479 -1.26978,0.772047 -1.59106,0.966837 z"
         sodipodi:nodetypes="cccccccccccczccccccccccc" />
      <path
         id="path1241"
         style="fill:#a686e4;fill-opacity:1;stroke:none;stroke-width:0.56642;stroke-miterlimit:4;stroke-dasharray:none"
         d="m 105.75959,92.525263 c -0.69931,1.055465 -1.39131,2.115813 -2.10485,3.161753 -0.22252,0.319997 -0.55668,0.799542 -0.78574,1.124012 -2.3663,3.342552 -4.915385,6.549572 -7.452037,9.762152 -1.062114,1.37444 -2.152059,2.74457 -2.923651,4.31075 -1.889279,3.67333 -2.918092,7.72835 -3.529962,11.7951 -0.300792,2.56834 -0.29551,5.16617 -0.14876,7.74505 0.165212,2.46494 0.727086,4.88667 1.408297,7.25523 0.893578,2.90829 2.054421,5.78025 3.833733,8.26711 1.763656,2.32415 4.116289,4.19479 6.74931,5.44428 1.94799,0.92718 4.1843,1.39398 6.31878,0.91397 3.61418,-0.75192 6.8388,-2.80286 9.49511,-5.31203 1.63837,-1.56417 3.08457,-3.32553 4.36898,-5.18906 1.30473,-1.89601 2.16203,-4.08174 2.53983,-6.34974 0.4382,-2.58704 0.56882,-5.21704 0.61617,-7.83718 0.0386,-4.89178 -0.64661,-9.85847 -2.58183,-14.38029 -1.44448,-3.2592 -3.41156,-6.24758 -5.32254,-9.24527 -1.18232,-1.88529 -2.5699,-3.62956 -4.03568,-5.300652 -1.61258,-1.89847 -3.33474,-3.721287 -4.68495,-5.825376 -0.32062,-0.630666 -0.73291,-1.536765 -1.06877,-2.029766 -0.25089,0.379743 -0.51707,1.11134 -0.69144,1.689957 z"
         sodipodi:nodetypes="ccccccccccccccccccccc" />
      <path
         id="path1243"
         style="fill:#c5a8ee;fill-opacity:1;stroke:none;stroke-width:0.56642;stroke-miterlimit:4;stroke-dasharray:none"
         d="m 107.88591,91.321593 c -1.09088,-0.474245 -1.45922,-0.836503 -1.43488,-0.486287 -0.23426,0.533266 1.01756,2.187249 1.33134,2.603966 1.97091,2.628591 3.89954,4.837906 5.94653,7.404568 0.65797,0.8382 1.44938,1.80511 2.04376,2.699 1.83699,2.8056 3.58119,5.52182 5.07961,8.52605 1.226,2.45168 1.91081,5.08768 2.36365,7.78979 0.27551,1.5251 0.4216,3.14303 0.4855,4.64491 0.0831,2.04664 0.24396,4.17526 0.15321,6.2552 -0.13767,2.5409 -0.28793,4.62685 -1.10576,7.05312 0,0 -0.29585,1.1016 -0.38856,1.33593 -0.72912,1.82605 -1.67088,3.02382 -2.87225,4.56283 -1.92374,2.40362 -4.16192,4.5146 -6.75893,6.1779 -0.4727,0.32943 -4.52271,1.8254 -4.47172,2.47341 0.0397,0.24607 0.0939,0.20184 0.32814,0.33924 0.52016,0.48066 4.71219,-0.39468 5.32895,-0.49554 3.45928,-0.69908 6.8209,-1.84012 10.05541,-3.24317 1.59861,-0.69014 3.14057,-1.54008 4.46113,-2.68554 1.99322,-1.69084 3.72446,-3.66679 5.35858,-5.69953 2.06171,-2.58392 3.75818,-5.51562 4.58082,-8.73733 0.37971,-1.33961 0.59223,-2.72551 0.57273,-4.11975 0.0156,-1.61611 -0.14461,-3.22195 -0.54612,-4.80051 -0.71385,-3.13356 -1.45521,-6.34734 -3.17335,-9.10789 -1.7798,-2.82421 -4.3802,-4.98471 -6.89356,-7.12802 -1.89816,-1.59346 -3.68614,-3.12739 -5.72569,-4.53529 -3.4854,-2.494972 -7.00402,-4.951542 -10.34537,-7.639397 -1.3387,-1.070565 -2.55919,-2.279275 -3.88373,-3.365773 -0.16314,0.0594 -0.32636,0.1188 -0.48952,0.178096 z"
         sodipodi:nodetypes="ccccccccccccccccccccccccccccc" />
      <path
         style="fill:none;stroke:#280b0b;stroke-width:1.73177;stroke-linecap:butt;stroke-linejoin:miter;stroke-miterlimit:4;stroke-dasharray:none;stroke-opacity:1"
         d="m 106.4174,89.933022 c -2.11501,1.472995 -4.37124,3.785174 -7.239594,6.409106 -2.86742,2.6231 -6.623674,5.325382 -10.433024,8.010242 -3.809349,2.68485 -7.492158,5.14622 -9.876361,8.74393 -2.384204,3.59771 -3.578868,7.85177 -3.900736,11.98873 -0.32185,4.13695 0.280773,8.93902 1.941856,12.36215 1.661101,3.42312 4.523378,5.7425 6.904447,8.01999 2.381068,2.27749 4.605775,3.16496 7.643117,4.34608 3.037359,1.18112 7.050851,1.95767 10.490555,2.39785 3.43972,0.44016 6.20864,0.66503 10.04098,0.29973 3.83235,-0.36531 8.74778,-2.02706 12.42062,-3.6952 3.67283,-1.66817 5.19756,-3.42211 7.72027,-6.1702 2.52269,-2.74808 5.07153,-6.50549 6.05667,-10.01525 0.98512,-3.50975 1.20679,-6.17827 0.42389,-9.68668 -0.78292,-3.50842 -1.58085,-7.0526 -3.6921,-9.99706 -2.11124,-2.94447 -5.29836,-5.40896 -7.79298,-7.49325 -2.49462,-2.08431 -4.84592,-3.49646 -7.04366,-5.09542 -2.19775,-1.598972 -4.09075,-2.921352 -6.14446,-4.495949 -2.05373,-1.574616 -5.9873,-5.176412 -7.51949,-5.928799 z"
         id="path896" />
    </g>
    <g
       aria-label="miniCRAN"
       style="font-style:normal;font-variant:normal;font-weight:normal;font-stretch:normal;font-size:10.5833px;line-height:1.25;font-family:'Segoe ui';-inkscape-font-specification:'Segoe ui';text-align:center;letter-spacing:0px;word-spacing:0px;text-anchor:middle;fill:#121c3b;fill-opacity:1;stroke:#000000;stroke-width:1.165;stroke-miterlimit:4;stroke-dasharray:none;stroke-opacity:1"
       id="text989"
       transform="translate(-5.5408581,3.2095653)">
      <g
         aria-label="config"
         id="text894"
         style="font-style:normal;font-variant:normal;font-weight:normal;font-stretch:normal;font-size:25.4px;line-height:1.25;font-family:'Segoe UI';-inkscape-font-specification:'Segoe UI, Normal';font-variant-ligatures:normal;font-variant-caps:normal;font-variant-numeric:normal;font-feature-settings:normal;text-align:start;letter-spacing:0px;word-spacing:0px;writing-mode:lr-tb;text-anchor:start;fill:#121c3b;fill-opacity:1;stroke:none;stroke-width:0.30824">
        <path
           d="m 82.971806,186.91457 q -1.16582,0.5581 -2.220019,0.86816 -1.041797,0.31006 -2.22002,0.31006 -1.500683,0 -2.75332,-0.43408 -1.252637,-0.44649 -2.145606,-1.33946 -0.905371,-0.89297 -1.401464,-2.25722 -0.496094,-1.36426 -0.496094,-3.18741 0,-3.39824 1.860351,-5.333 1.872754,-1.93477 4.936133,-1.93477 1.190625,0 2.331641,0.33486 1.153418,0.33487 2.108398,0.81856 v 2.59209 h -0.124023 q -1.066602,-0.83096 -2.207617,-1.27744 -1.128614,-0.44649 -2.207618,-0.44649 -1.984375,0 -3.137793,1.33946 -1.141015,1.32705 -1.141015,3.90673 0,2.50528 1.116211,3.85713 1.128613,1.33946 3.162597,1.33946 0.706934,0 1.438672,-0.18604 0.731739,-0.18603 1.314649,-0.48369 0.508496,-0.26045 0.95498,-0.5457 0.446484,-0.29766 0.706934,-0.5085 h 0.124023 z"
           style="font-style:normal;font-variant:normal;font-weight:normal;font-stretch:normal;font-size:25.4px;font-family:sans-serif;-inkscape-font-specification:sans-serif;fill:#121c3b;fill-opacity:1;stroke-width:0.30824"
           id="path1240" />
        <path
           d="m 97.767802,180.86222 q 0,3.38584 -1.736328,5.34541 -1.736329,1.95957 -4.650879,1.95957 -2.939356,0 -4.675684,-1.95957 -1.723926,-1.95957 -1.723926,-5.34541 0,-3.38584 1.723926,-5.34541 1.736328,-1.97197 4.675684,-1.97197 2.91455,0 4.650879,1.97197 1.736328,1.95957 1.736328,5.34541 z m -2.406055,0 q 0,-2.69131 -1.054199,-3.99355 -1.054199,-1.31465 -2.926953,-1.31465 -1.897559,0 -2.951758,1.31465 -1.041797,1.30224 -1.041797,3.99355 0,2.60449 1.054199,3.95635 1.054199,1.33945 2.939356,1.33945 1.860351,0 2.91455,-1.32705 1.066602,-1.33945 1.066602,-3.96875 z"
           style="font-style:normal;font-variant:normal;font-weight:normal;font-stretch:normal;font-size:25.4px;font-family:sans-serif;-inkscape-font-specification:sans-serif;fill:#121c3b;fill-opacity:1;stroke-width:0.30824"
           id="path1242" />
        <path
           d="m 112.96067,187.78273 h -2.33164 v -7.88789 q 0,-0.95498 -0.11162,-1.78594 -0.11162,-0.84336 -0.40928,-1.31465 -0.31005,-0.52089 -0.89296,-0.76894 -0.58291,-0.26045 -1.51309,-0.26045 -0.95498,0 -1.99678,0.47129 -1.04179,0.47129 -1.99677,1.20303 v 10.34355 h -2.33165 v -13.85342 h 2.33165 v 1.53789 q 1.0914,-0.90537 2.25722,-1.41386 1.16582,-0.5085 2.39365,-0.5085 2.24483,0 3.42305,1.35186 1.17822,1.35185 1.17822,3.89433 z"
           style="font-style:normal;font-variant:normal;font-weight:normal;font-stretch:normal;font-size:25.4px;font-family:sans-serif;-inkscape-font-specification:sans-serif;fill:#121c3b;fill-opacity:1;stroke-width:0.30824"
           id="path1244" />
        <path
           d="m 124.90413,170.74191 h -0.12402 q -0.38448,-0.11162 -1.00459,-0.22324 -0.62012,-0.12403 -1.09141,-0.12403 -1.50068,0 -2.18281,0.66973 -0.66973,0.65733 -0.66973,2.39365 v 0.47129 h 4.2044 v 1.95957 h -4.12998 v 11.89385 h -2.33165 v -11.89385 h -1.57509 v -1.95957 h 1.57509 v -0.45888 q 0,-2.46807 1.22784,-3.78272 1.22783,-1.32705 3.54707,-1.32705 0.78134,0 1.40146,0.0744 0.63252,0.0744 1.15342,0.17364 z"
           style="font-style:normal;font-variant:normal;font-weight:normal;font-stretch:normal;font-size:25.4px;font-family:sans-serif;-inkscape-font-specification:sans-serif;fill:#121c3b;fill-opacity:1;stroke-width:0.30824"
           id="path1246" />
        <path
           d="m 128.88528,171.61007 h -2.62929 v -2.41845 h 2.62929 z m -0.14883,16.17266 h -2.33164 v -13.85342 h 2.33164 z"
           style="font-style:normal;font-variant:normal;font-weight:normal;font-stretch:normal;font-size:25.4px;font-family:sans-serif;-inkscape-font-specification:sans-serif;fill:#121c3b;fill-opacity:1;stroke-width:0.30824"
           id="path1248" />
        <path
           d="m 144.58665,186.20763 q 0,3.52227 -1.5999,5.17178 -1.59991,1.64951 -4.92374,1.64951 -1.1038,0 -2.158,-0.16123 -1.0418,-0.14883 -2.05879,-0.43408 v -2.38125 h 0.12402 q 0.57051,0.22324 1.81074,0.5457 1.24024,0.33487 2.48047,0.33487 1.19063,0 1.97198,-0.28526 0.78134,-0.28525 1.21542,-0.79375 0.43409,-0.48369 0.62012,-1.16582 0.18604,-0.68213 0.18604,-1.52549 v -1.26504 q -1.0542,0.84336 -2.02158,1.26504 -0.95499,0.40928 -2.44327,0.40928 -2.48047,0 -3.94394,-1.78594 -1.45108,-1.79834 -1.45108,-5.06015 0,-1.78594 0.4961,-3.07578 0.50849,-1.30225 1.37666,-2.24483 0.80615,-0.88057 1.95957,-1.36426 1.15342,-0.49609 2.29443,-0.49609 1.20303,0 2.00918,0.24805 0.81856,0.23564 1.72393,0.73173 l 0.14883,-0.59531 h 2.18281 z m -2.33164,-2.23242 v -7.55303 q -0.93018,-0.42168 -1.73633,-0.59531 -0.79375,-0.18603 -1.5875,-0.18603 -1.92236,0 -3.02617,1.28984 -1.10381,1.28984 -1.10381,3.74551 0,2.33164 0.81855,3.53467 0.81856,1.20302 2.71612,1.20302 1.01699,0 2.03398,-0.38447 1.0294,-0.39688 1.88516,-1.0542 z"
           style="font-style:normal;font-variant:normal;font-weight:normal;font-stretch:normal;font-size:25.4px;font-family:sans-serif;-inkscape-font-specification:sans-serif;fill:#121c3b;fill-opacity:1;stroke-width:0.30824"
           id="path1250" />
      </g>
    </g>
    <path
       id="path1261"
       style="fill:#f53e2d;fill-opacity:1;stroke:none;stroke-width:2.26568;stroke-miterlimit:4;stroke-dasharray:none"
       d="m 88.860472,120.84316 c -2.516055,0.15465 -4.889468,1.15462 -7.100443,2.30489 -2.861584,1.5157 -5.462827,3.4842 -7.822858,5.69402 -2.432942,2.22657 -4.923624,4.40824 -7.103348,6.89077 -1.517682,1.73279 -2.622637,3.78514 -3.468261,5.91729 -0.578362,1.42044 -0.695747,2.981 -0.540579,4.49553 0.241595,2.91199 1.135897,5.74938 2.424462,8.36272 0.66717,1.29331 1.414588,2.59592 2.515991,3.57058 1.619434,1.29571 3.45156,2.29872 5.299953,3.22645 1.98872,0.93347 4.034054,1.8997 6.247901,2.11564 1.569528,0.16764 3.173557,-0.33724 4.389762,-1.33732 1.19583,-0.92349 2.820251,-1.84957 4.145164,-1.90207 1.324912,-0.0525 3.585506,0.97743 4.306343,1.61241 0.937309,0.86487 2.114294,1.53073 3.41135,1.59797 2.271867,0.20184 4.487181,-0.59772 6.514301,-1.54276 2.97454,-1.45057 5.73477,-3.39288 7.9853,-5.82831 1.21129,-1.33211 2.27164,-2.89108 2.59958,-4.69352 0.50177,-2.51102 0.49852,-5.10041 0.26546,-7.64211 -0.22029,-1.97022 -0.5243,-4.02984 -1.65565,-5.71012 -1.42199,-2.13666 -3.2517,-3.9633 -5.10686,-5.722 -2.328,-2.19018 -4.84548,-4.16714 -7.433344,-6.03922 -1.708844,-1.26702 -3.378959,-2.58627 -5.013917,-3.94613 -1.119393,-0.89286 -2.525879,-1.39548 -3.956963,-1.42057 -0.300835,-0.0156 -0.602358,-0.0156 -0.903344,-0.004 z"
       sodipodi:nodetypes="ccccccccccczccccccccccccc" />
    <path
       style="fill:#fdf4d6;fill-opacity:1;stroke:none;stroke-width:0.801037;stroke-miterlimit:4;stroke-dasharray:none"
       d="m 83.830001,170.26806 c -5.451639,-0.7474 -9.330492,-1.7843 -13.098786,-3.50156 -2.036808,-0.9282 -3.250297,-1.80006 -5.862977,-4.2124 -3.771842,-3.48261 -5.366868,-5.81947 -6.395959,-9.37066 -1.924068,-6.63955 -0.741081,-15.00076 2.890546,-20.4301 1.551786,-2.31995 3.716642,-4.35524 7.544575,-7.09305 1.605721,-1.14845 4.779278,-3.53089 7.052347,-5.29434 2.273074,-1.76345 4.466663,-3.43343 4.874652,-3.71108 0.407985,-0.27765 1.83909,-1.56019 3.180233,-2.85008 1.341139,-1.28989 2.833932,-2.65584 3.317313,-3.03544 l 0.878875,-0.69018 1.133451,0.89298 c 0.623397,0.49113 2.230249,1.80429 3.570778,2.91814 2.192541,1.82178 5.733303,4.43533 12.011541,8.86611 4.52607,3.1942 9.08253,7.32071 10.88371,9.85673 0.56371,0.79369 1.31761,2.14612 1.67533,3.00539 0.7209,1.73169 1.76979,5.71249 2.15061,8.16205 0.70109,4.50983 -0.96028,10.0101 -4.40421,14.58093 -2.88067,3.82325 -5.69996,6.51631 -8.32886,7.95596 -2.04588,1.12037 -6.08913,2.6231 -9.325413,3.46593 -2.674913,0.69662 -3.116498,0.75025 -6.782119,0.82362 -3.070316,0.0615 -4.581433,-0.0121 -6.965637,-0.33895 z m -0.767528,-6.12033 c 1.276271,-0.56437 1.757721,-2.71177 4.446799,-2.68262 2.689078,0.0291 1.704684,-0.22023 4.143752,1.8956 2.153813,1.81231 7.262545,1.70407 11.111946,-0.23543 3.00286,-1.51297 7.06509,-4.66186 8.80253,-6.82336 2.20339,-2.7412 2.83751,-5.27094 2.68712,-10.71985 -0.17223,-6.23982 -0.77677,-7.71511 -4.88995,-11.93317 -3.34122,-3.42641 -5.50771,-5.29481 -9.03168,-7.78903 -1.457092,-1.03131 -3.545186,-2.62966 -4.640203,-3.55187 -3.09816,-2.60927 -4.672879,-3.16581 -7.615509,-2.69145 -3.28819,0.53005 -7.549405,2.27431 -9.998115,4.09256 -0.641125,0.47605 -2.1671,1.79234 -3.391063,2.92508 -1.22396,1.13274 -3.226805,2.86303 -4.450764,3.84509 -2.734704,2.19422 -4.157195,3.72435 -5.764992,6.20125 -1.41455,2.1792 -2.360029,4.45592 -2.728023,6.5691 -0.556056,3.19309 0.309921,7.78514 2.178076,11.54977 0.89383,1.8012 1.408154,2.53268 2.709305,3.8532 1.522754,1.54543 1.818352,1.73469 5.700793,3.64995 2.25212,1.11099 4.490287,2.11479 4.973701,2.23066 1.481837,0.35515 4.545321,0.15 5.756277,-0.38548 z"
       id="path1249"
       sodipodi:nodetypes="cssssssssscsssssssssccszcsssssccssssssssss" />
    <path
       id="path1226"
       style="fill:none;stroke:#280b0b;stroke-width:1.73177;stroke-linecap:butt;stroke-linejoin:miter;stroke-miterlimit:4;stroke-dasharray:none;stroke-opacity:1"
       d="m 88.586584,120.48792 c -3.048037,0.45257 -6.027417,1.59976 -8.692168,3.14717 -2.467016,1.43259 -4.363673,3.6762 -6.519144,5.545 -2.16593,1.87788 -4.684744,3.43169 -6.444193,5.69487 -1.878646,2.41651 -3.630924,5.15946 -4.196227,8.16766 -0.537976,2.86275 -0.0087,5.92414 0.899189,8.69218 0.784338,2.39365 2.051339,4.72715 3.821559,6.51913 1.496184,1.51456 3.557532,2.36181 5.470087,3.29703 1.8752,0.91696 3.767995,2.03747 5.844739,2.24797 1.511579,0.15325 3.129246,-0.0858 4.495945,-0.74932 1.939311,-0.94175 2.3832,-2.14137 4.53905,-2.15204 2.217138,-0.0104 3.157419,1.36978 5.20218,2.22697 1.777454,0.74513 3.87558,0.73029 5.769808,0.37466 2.383241,-0.44743 4.595511,-1.69897 6.594071,-3.07223 2.51867,-1.73065 5.13631,-3.68344 6.59406,-6.36928 1.25014,-2.30335 1.48947,-5.09733 1.49865,-7.71805 0.01,-2.71886 -0.32708,-5.56427 -1.49865,-8.01778 -0.96194,-2.01449 -2.79146,-3.49333 -4.34608,-5.09541 -1.50238,-1.54821 -3.11764,-2.99027 -4.79569,-4.34609 -1.6984,-1.37226 -3.551036,-2.54185 -5.320213,-3.82156 -2.028047,-1.46697 -3.710717,-3.58381 -6.069539,-4.42101 -0.895714,-0.31792 -1.907283,-0.28947 -2.847434,-0.1498 z m -0.475817,-11.54874 c -2.115016,1.473 -4.275508,3.69028 -7.186603,6.4621 -3.228997,2.16249 -6.676666,5.27239 -10.486016,7.95725 -3.809349,2.68485 -7.492158,5.14623 -9.876362,8.74394 -2.384203,3.5977 -3.578868,7.85175 -3.900735,11.98873 -0.32185,4.13694 0.280772,8.93901 1.941856,12.36214 1.661101,3.42311 4.523378,5.7425 6.904447,8.01999 2.381068,2.27749 4.605775,3.16496 7.643117,4.34608 3.037359,1.18112 7.05085,1.95767 10.490553,2.39785 3.439714,0.44016 6.208625,0.66503 10.040976,0.29973 3.832349,-0.36532 8.74778,-2.02705 12.42062,-3.6952 3.67284,-1.66817 5.19755,-3.42211 7.72026,-6.17019 2.5227,-2.74809 5.07155,-6.50551 6.05667,-10.01525 0.98513,-3.50976 1.2068,-6.17829 0.42389,-9.68668 -0.78292,-3.50842 -1.58084,-7.05261 -3.69208,-9.99707 -2.11124,-2.94447 -5.29837,-5.40896 -7.79299,-7.49326 -2.49462,-2.08431 -4.84591,-3.49645 -7.04366,-5.09541 -2.19774,-1.59896 -4.090746,-2.92135 -6.14447,-4.49595 -2.053725,-1.57461 -5.987296,-5.17641 -7.519473,-5.9288 z"
       sodipodi:nodetypes="csssscsscccsssscsssssccccssccssssssssssscc" />
    <g
       id="g953"
       transform="matrix(1.0737104,0,0,1.0737104,152.14268,-48.253516)">
      <g
         inkscape:label="Rendered Gears"
         transform="matrix(1.3287847,0,0,1.3287847,-60.063566,177.58434)"
         id="g951"
         style="fill:#ffffff;stroke:#000000">
        <path
           style="fill:#ffffff;stroke:#000000;stroke-width:0.264583"
           d="m 8.33259,-1.22361 1.06349,-0.15617 0.62382,0.06064 1.7592,0.79639 v 1.0455 L 10.0199,1.31914 9.39608,1.37978 8.33259,1.22361 7.82804,3.10662 8.82714,3.50312 9.33704,3.86753 10.4624,5.43686 9.93966,6.34228 8.0179,6.15235 7.44736,5.89297 6.60443,5.22597 5.22597,6.60443 5.89297,7.44736 6.15235,8.0179 6.34228,9.93966 5.43686,10.4624 3.86753,9.33704 3.50312,8.82714 3.10662,7.82804 1.22361,8.33259 1.37978,9.39608 1.31914,10.0199 0.52275,11.7791 h -1.0455 l -0.79639,-1.7592 -0.06064,-0.62382 0.15617,-1.06349 -1.88301,-0.50455 -0.3965,0.9991 -0.36441,0.5099 -1.56933,1.12536 -0.90542,-0.52274 0.18993,-1.92176 0.25938,-0.57054 0.667,-0.84293 -1.37846,-1.37846 -0.84293,0.667 -0.57054,0.25938 -1.92176,0.18993 -0.52274,-0.90542 1.12536,-1.56933 0.5099,-0.36441 0.9991,-0.3965 -0.50455,-1.88301 -1.06349,0.15617 -0.62382,-0.06064 -1.7592,-0.79639 v -1.0455 l 1.7592,-0.79639 0.62382,-0.06064 1.06349,0.15617 0.50455,-1.88301 -0.9991,-0.3965 -0.5099,-0.36441 -1.12536,-1.56933 0.52274,-0.90542 1.92176,0.18993 0.57054,0.25938 0.84293,0.667 1.37846,-1.37846 -0.667,-0.84293 -0.25938,-0.57054 -0.18993,-1.92176 0.90542,-0.52274 1.56933,1.12536 0.36441,0.5099 0.3965,0.9991 1.88301,-0.50455 -0.15617,-1.06349 0.06064,-0.62382 0.79639,-1.7592 h 1.0455 l 0.79639,1.7592 0.06064,0.62382 -0.15617,1.06349 1.88301,0.50455 0.3965,-0.9991 0.36441,-0.5099 1.56933,-1.12536 0.90542,0.52274 -0.18993,1.92176 -0.25938,0.57054 -0.667,0.84293 1.37846,1.37846 0.84293,-0.667 0.57054,-0.25938 1.92176,-0.18993 0.52274,0.90542 -1.12536,1.56933 -0.5099,0.36441 -0.9991,0.3965 z"
           id="path947" />
        <path
           id="path949"
           style="fill:#ffffff;stroke:#000000;stroke-width:0.264583"
           d="M 2.6458333,0 A 2.6458333,2.6458333 0 0 1 0,2.6458333 2.6458333,2.6458333 0 0 1 -2.6458333,0 2.6458333,2.6458333 0 0 1 0,-2.6458333 2.6458333,2.6458333 0 0 1 2.6458333,0 Z" />
      </g>
    </g>
    <path
       style="fill:#c5a8ee;fill-opacity:1;stroke:none;stroke-width:0.231277"
       d="m 86.816226,145.88141 c -1.270104,-0.32206 -2.323037,-1.38541 -2.619074,-2.64499 -0.131228,-0.55835 -0.09106,-1.44584 0.08811,-1.94706 0.735293,-2.05682 3.001669,-2.98854 4.961404,-2.03965 0.558797,0.27056 1.313129,1.02978 1.582597,1.59285 0.287298,0.60033 0.39778,1.13516 0.363212,1.75828 -0.07996,1.44142 -1.027576,2.70514 -2.387161,3.18345 -0.479391,0.16865 -1.50877,0.21891 -1.989092,0.0971 z"
       id="path961" />
    <path
       style="fill:#c5a8ee;fill-opacity:1;stroke:none;stroke-width:0.231277"
       d="m 86.52072,145.75979 c -0.572203,-0.2127 -0.934299,-0.44789 -1.369954,-0.88981 -0.697217,-0.70724 -0.990637,-1.43862 -0.987007,-2.46022 0.0037,-1.04086 0.294926,-1.74693 1.022448,-2.47889 0.695492,-0.69973 1.476941,-1.0146 2.504924,-1.0093 0.95689,0.005 1.649201,0.2851 2.341036,0.94737 0.772713,0.7397 1.121751,1.52078 1.119931,2.50621 -5.29e-4,0.30979 -0.04381,0.72457 -0.09631,0.92375 -0.314475,1.19332 -1.311865,2.2161 -2.450226,2.51261 -0.567143,0.14772 -1.618499,0.12164 -2.084846,-0.0517 z"
       id="path963" />
    <path
       style="fill:#f53e2d;fill-opacity:1;stroke:none;stroke-width:0.231277"
       d="m 86.646731,145.81934 c -0.497628,-0.15586 -1.039445,-0.49725 -1.465686,-0.92348 -0.723442,-0.72345 -1.028576,-1.46667 -1.022551,-2.49067 0.006,-1.02584 0.306406,-1.75037 1.022551,-2.46652 0.704257,-0.70425 1.437918,-1.01185 2.430261,-1.01892 1.068092,-0.008 1.724803,0.26631 2.50217,1.04367 0.779764,0.77977 1.047348,1.42117 1.041781,2.49715 -0.008,1.55589 -1.083254,2.96898 -2.549691,3.35094 -0.438674,0.11426 -1.604159,0.11892 -1.958835,0.008 z"
       id="path965" />
    <path
       style="fill:#f53e2d;fill-opacity:1;stroke:none;stroke-width:0.0817687"
       d="m 87.660201,138.80341 c -0.601953,-0.006 -1.214673,0.10666 -1.739265,0.41342 -0.539829,0.30737 -0.988663,0.76104 -1.346626,1.26486 -0.466576,0.66197 -0.570505,1.50043 -0.521173,2.29016 0.03165,0.82669 0.426138,1.61492 1.02552,2.17758 0.443163,0.46078 0.99705,0.8311 1.616522,1.00261 0.529648,0.11183 1.076708,0.0647 1.612371,0.0326 1.184547,-0.15037 2.200674,-1.02578 2.666296,-2.10523 0.372417,-0.86435 0.406019,-1.87261 0.09165,-2.75939 -0.176749,-0.4812 -0.508822,-0.88207 -0.875146,-1.23224 -0.337579,-0.35268 -0.720892,-0.6731 -1.17955,-0.85427 -0.425944,-0.17846 -0.891854,-0.2347 -1.3506,-0.23008 z"
       id="path969" />
  </g>
</svg>
